<mxfile host="app.diagrams.net" modified="2021-08-11T00:05:01.524Z" agent="5.0 (X11)" etag="0VWniHTinrRXWgOBrul0" version="14.9.5" type="github">
  <diagram id="gAr4XXxYnduvlX9N8zHk" name="Page-1">
    <mxGraphModel dx="1422" dy="763" grid="1" gridSize="10" guides="1" tooltips="1" connect="1" arrows="1" fold="1" page="1" pageScale="1" pageWidth="850" pageHeight="1100" math="0" shadow="0">
      <root>
        <mxCell id="0" />
        <mxCell id="1" parent="0" />
        <mxCell id="z56JA3SXmcVmhiXHGwNw-1" value="Tbl_User" style="shape=table;startSize=30;container=1;collapsible=0;childLayout=tableLayout;fixedRows=1;rowLines=0;fontStyle=1;align=center;pointerEvents=1;" vertex="1" parent="1">
          <mxGeometry x="110" y="150" width="180" height="230" as="geometry" />
        </mxCell>
        <mxCell id="z56JA3SXmcVmhiXHGwNw-2" value="" style="shape=partialRectangle;html=1;whiteSpace=wrap;collapsible=0;dropTarget=0;pointerEvents=1;fillColor=none;top=0;left=0;bottom=1;right=0;points=[[0,0.5],[1,0.5]];portConstraint=eastwest;" vertex="1" parent="z56JA3SXmcVmhiXHGwNw-1">
          <mxGeometry y="30" width="180" height="30" as="geometry" />
        </mxCell>
        <mxCell id="z56JA3SXmcVmhiXHGwNw-3" value="PK" style="shape=partialRectangle;html=1;whiteSpace=wrap;connectable=0;fillColor=none;top=0;left=0;bottom=0;right=0;overflow=hidden;pointerEvents=1;" vertex="1" parent="z56JA3SXmcVmhiXHGwNw-2">
          <mxGeometry width="40" height="30" as="geometry" />
        </mxCell>
        <mxCell id="z56JA3SXmcVmhiXHGwNw-4" value="id:integer" style="shape=partialRectangle;html=1;whiteSpace=wrap;connectable=0;fillColor=none;top=0;left=0;bottom=0;right=0;align=left;spacingLeft=6;overflow=hidden;pointerEvents=1;" vertex="1" parent="z56JA3SXmcVmhiXHGwNw-2">
          <mxGeometry x="40" width="140" height="30" as="geometry" />
        </mxCell>
        <mxCell id="z56JA3SXmcVmhiXHGwNw-5" value="" style="shape=partialRectangle;html=1;whiteSpace=wrap;collapsible=0;dropTarget=0;pointerEvents=1;fillColor=none;top=0;left=0;bottom=0;right=0;points=[[0,0.5],[1,0.5]];portConstraint=eastwest;" vertex="1" parent="z56JA3SXmcVmhiXHGwNw-1">
          <mxGeometry y="60" width="180" height="30" as="geometry" />
        </mxCell>
        <mxCell id="z56JA3SXmcVmhiXHGwNw-6" value="" style="shape=partialRectangle;html=1;whiteSpace=wrap;connectable=0;fillColor=none;top=0;left=0;bottom=0;right=0;overflow=hidden;pointerEvents=1;" vertex="1" parent="z56JA3SXmcVmhiXHGwNw-5">
          <mxGeometry width="40" height="30" as="geometry" />
        </mxCell>
        <mxCell id="z56JA3SXmcVmhiXHGwNw-7" value="name:varchar(122)" style="shape=partialRectangle;html=1;whiteSpace=wrap;connectable=0;fillColor=none;top=0;left=0;bottom=0;right=0;align=left;spacingLeft=6;overflow=hidden;pointerEvents=1;" vertex="1" parent="z56JA3SXmcVmhiXHGwNw-5">
          <mxGeometry x="40" width="140" height="30" as="geometry" />
        </mxCell>
        <mxCell id="z56JA3SXmcVmhiXHGwNw-8" value="" style="shape=partialRectangle;html=1;whiteSpace=wrap;collapsible=0;dropTarget=0;pointerEvents=1;fillColor=none;top=0;left=0;bottom=0;right=0;points=[[0,0.5],[1,0.5]];portConstraint=eastwest;" vertex="1" parent="z56JA3SXmcVmhiXHGwNw-1">
          <mxGeometry y="90" width="180" height="30" as="geometry" />
        </mxCell>
        <mxCell id="z56JA3SXmcVmhiXHGwNw-9" value="" style="shape=partialRectangle;html=1;whiteSpace=wrap;connectable=0;fillColor=none;top=0;left=0;bottom=0;right=0;overflow=hidden;pointerEvents=1;" vertex="1" parent="z56JA3SXmcVmhiXHGwNw-8">
          <mxGeometry width="40" height="30" as="geometry" />
        </mxCell>
        <mxCell id="z56JA3SXmcVmhiXHGwNw-10" value="email:varchar(122)" style="shape=partialRectangle;html=1;whiteSpace=wrap;connectable=0;fillColor=none;top=0;left=0;bottom=0;right=0;align=left;spacingLeft=6;overflow=hidden;pointerEvents=1;" vertex="1" parent="z56JA3SXmcVmhiXHGwNw-8">
          <mxGeometry x="40" width="140" height="30" as="geometry" />
        </mxCell>
        <mxCell id="z56JA3SXmcVmhiXHGwNw-11" value="password:varchar(122)" style="shape=partialRectangle;html=1;whiteSpace=wrap;connectable=0;fillColor=none;top=0;left=0;bottom=0;right=0;align=left;spacingLeft=6;overflow=hidden;pointerEvents=1;" vertex="1" parent="1">
          <mxGeometry x="150" y="270" width="140" height="30" as="geometry" />
        </mxCell>
        <mxCell id="z56JA3SXmcVmhiXHGwNw-12" value="level:varchar(122)" style="shape=partialRectangle;html=1;whiteSpace=wrap;connectable=0;fillColor=none;top=0;left=0;bottom=0;right=0;align=left;spacingLeft=6;overflow=hidden;pointerEvents=1;" vertex="1" parent="1">
          <mxGeometry x="150" y="310" width="140" height="30" as="geometry" />
        </mxCell>
        <mxCell id="z56JA3SXmcVmhiXHGwNw-13" value="Tbl_kriteria" style="shape=table;startSize=30;container=1;collapsible=0;childLayout=tableLayout;fixedRows=1;rowLines=0;fontStyle=1;align=center;pointerEvents=1;" vertex="1" parent="1">
          <mxGeometry x="420" y="90" width="200" height="120" as="geometry" />
        </mxCell>
        <mxCell id="z56JA3SXmcVmhiXHGwNw-14" value="" style="shape=partialRectangle;html=1;whiteSpace=wrap;collapsible=0;dropTarget=0;pointerEvents=1;fillColor=none;top=0;left=0;bottom=1;right=0;points=[[0,0.5],[1,0.5]];portConstraint=eastwest;" vertex="1" parent="z56JA3SXmcVmhiXHGwNw-13">
          <mxGeometry y="30" width="200" height="30" as="geometry" />
        </mxCell>
        <mxCell id="z56JA3SXmcVmhiXHGwNw-15" value="PK" style="shape=partialRectangle;html=1;whiteSpace=wrap;connectable=0;fillColor=none;top=0;left=0;bottom=0;right=0;overflow=hidden;pointerEvents=1;" vertex="1" parent="z56JA3SXmcVmhiXHGwNw-14">
          <mxGeometry width="44" height="30" as="geometry" />
        </mxCell>
        <mxCell id="z56JA3SXmcVmhiXHGwNw-16" value="id_kriteria:integer" style="shape=partialRectangle;html=1;whiteSpace=wrap;connectable=0;fillColor=none;top=0;left=0;bottom=0;right=0;align=left;spacingLeft=6;overflow=hidden;pointerEvents=1;" vertex="1" parent="z56JA3SXmcVmhiXHGwNw-14">
          <mxGeometry x="44" width="156" height="30" as="geometry" />
        </mxCell>
        <mxCell id="z56JA3SXmcVmhiXHGwNw-17" value="" style="shape=partialRectangle;html=1;whiteSpace=wrap;collapsible=0;dropTarget=0;pointerEvents=1;fillColor=none;top=0;left=0;bottom=0;right=0;points=[[0,0.5],[1,0.5]];portConstraint=eastwest;" vertex="1" parent="z56JA3SXmcVmhiXHGwNw-13">
          <mxGeometry y="60" width="200" height="30" as="geometry" />
        </mxCell>
        <mxCell id="z56JA3SXmcVmhiXHGwNw-18" value="" style="shape=partialRectangle;html=1;whiteSpace=wrap;connectable=0;fillColor=none;top=0;left=0;bottom=0;right=0;overflow=hidden;pointerEvents=1;" vertex="1" parent="z56JA3SXmcVmhiXHGwNw-17">
          <mxGeometry width="44" height="30" as="geometry" />
        </mxCell>
        <mxCell id="z56JA3SXmcVmhiXHGwNw-19" value="kd_kriteria:varchar(122)" style="shape=partialRectangle;html=1;whiteSpace=wrap;connectable=0;fillColor=none;top=0;left=0;bottom=0;right=0;align=left;spacingLeft=6;overflow=hidden;pointerEvents=1;" vertex="1" parent="z56JA3SXmcVmhiXHGwNw-17">
          <mxGeometry x="44" width="156" height="30" as="geometry" />
        </mxCell>
        <mxCell id="z56JA3SXmcVmhiXHGwNw-20" value="" style="shape=partialRectangle;html=1;whiteSpace=wrap;collapsible=0;dropTarget=0;pointerEvents=1;fillColor=none;top=0;left=0;bottom=0;right=0;points=[[0,0.5],[1,0.5]];portConstraint=eastwest;" vertex="1" parent="z56JA3SXmcVmhiXHGwNw-13">
          <mxGeometry y="90" width="200" height="30" as="geometry" />
        </mxCell>
        <mxCell id="z56JA3SXmcVmhiXHGwNw-21" value="" style="shape=partialRectangle;html=1;whiteSpace=wrap;connectable=0;fillColor=none;top=0;left=0;bottom=0;right=0;overflow=hidden;pointerEvents=1;" vertex="1" parent="z56JA3SXmcVmhiXHGwNw-20">
          <mxGeometry width="44" height="30" as="geometry" />
        </mxCell>
        <mxCell id="z56JA3SXmcVmhiXHGwNw-22" value="" style="shape=partialRectangle;html=1;whiteSpace=wrap;connectable=0;fillColor=none;top=0;left=0;bottom=0;right=0;align=left;spacingLeft=6;overflow=hidden;pointerEvents=1;" vertex="1" parent="z56JA3SXmcVmhiXHGwNw-20">
          <mxGeometry x="44" width="156" height="30" as="geometry" />
        </mxCell>
        <mxCell id="z56JA3SXmcVmhiXHGwNw-23" value="nama_kriteria:varchar(122)" style="shape=partialRectangle;html=1;whiteSpace=wrap;connectable=0;fillColor=none;top=0;left=0;bottom=0;right=0;align=left;spacingLeft=6;overflow=hidden;pointerEvents=1;" vertex="1" parent="1">
          <mxGeometry x="460" y="180" width="150" height="30" as="geometry" />
        </mxCell>
        <mxCell id="z56JA3SXmcVmhiXHGwNw-24" value="Tbl_nilai_kriteria" style="shape=table;startSize=30;container=1;collapsible=0;childLayout=tableLayout;fixedRows=1;rowLines=0;fontStyle=1;align=center;pointerEvents=1;" vertex="1" parent="1">
          <mxGeometry x="590" y="280" width="200" height="120" as="geometry" />
        </mxCell>
        <mxCell id="z56JA3SXmcVmhiXHGwNw-25" value="" style="shape=partialRectangle;html=1;whiteSpace=wrap;collapsible=0;dropTarget=0;pointerEvents=1;fillColor=none;top=0;left=0;bottom=1;right=0;points=[[0,0.5],[1,0.5]];portConstraint=eastwest;" vertex="1" parent="z56JA3SXmcVmhiXHGwNw-24">
          <mxGeometry y="30" width="200" height="30" as="geometry" />
        </mxCell>
        <mxCell id="z56JA3SXmcVmhiXHGwNw-26" value="PK" style="shape=partialRectangle;html=1;whiteSpace=wrap;connectable=0;fillColor=none;top=0;left=0;bottom=0;right=0;overflow=hidden;pointerEvents=1;" vertex="1" parent="z56JA3SXmcVmhiXHGwNw-25">
          <mxGeometry width="44" height="30" as="geometry" />
        </mxCell>
        <mxCell id="z56JA3SXmcVmhiXHGwNw-27" value="id_nilai_kriteria:integer" style="shape=partialRectangle;html=1;whiteSpace=wrap;connectable=0;fillColor=none;top=0;left=0;bottom=0;right=0;align=left;spacingLeft=6;overflow=hidden;pointerEvents=1;" vertex="1" parent="z56JA3SXmcVmhiXHGwNw-25">
          <mxGeometry x="44" width="156" height="30" as="geometry" />
        </mxCell>
        <mxCell id="z56JA3SXmcVmhiXHGwNw-28" value="" style="shape=partialRectangle;html=1;whiteSpace=wrap;collapsible=0;dropTarget=0;pointerEvents=1;fillColor=none;top=0;left=0;bottom=0;right=0;points=[[0,0.5],[1,0.5]];portConstraint=eastwest;" vertex="1" parent="z56JA3SXmcVmhiXHGwNw-24">
          <mxGeometry y="60" width="200" height="30" as="geometry" />
        </mxCell>
        <mxCell id="z56JA3SXmcVmhiXHGwNw-29" value="" style="shape=partialRectangle;html=1;whiteSpace=wrap;connectable=0;fillColor=none;top=0;left=0;bottom=0;right=0;overflow=hidden;pointerEvents=1;" vertex="1" parent="z56JA3SXmcVmhiXHGwNw-28">
          <mxGeometry width="44" height="30" as="geometry" />
        </mxCell>
        <mxCell id="z56JA3SXmcVmhiXHGwNw-30" value="id_kriteria:integer" style="shape=partialRectangle;html=1;whiteSpace=wrap;connectable=0;fillColor=none;top=0;left=0;bottom=0;right=0;align=left;spacingLeft=6;overflow=hidden;pointerEvents=1;" vertex="1" parent="z56JA3SXmcVmhiXHGwNw-28">
          <mxGeometry x="44" width="156" height="30" as="geometry" />
        </mxCell>
        <mxCell id="z56JA3SXmcVmhiXHGwNw-31" value="" style="shape=partialRectangle;html=1;whiteSpace=wrap;collapsible=0;dropTarget=0;pointerEvents=1;fillColor=none;top=0;left=0;bottom=0;right=0;points=[[0,0.5],[1,0.5]];portConstraint=eastwest;" vertex="1" parent="z56JA3SXmcVmhiXHGwNw-24">
          <mxGeometry y="90" width="200" height="30" as="geometry" />
        </mxCell>
        <mxCell id="z56JA3SXmcVmhiXHGwNw-32" value="" style="shape=partialRectangle;html=1;whiteSpace=wrap;connectable=0;fillColor=none;top=0;left=0;bottom=0;right=0;overflow=hidden;pointerEvents=1;" vertex="1" parent="z56JA3SXmcVmhiXHGwNw-31">
          <mxGeometry width="44" height="30" as="geometry" />
        </mxCell>
        <mxCell id="z56JA3SXmcVmhiXHGwNw-33" value="" style="shape=partialRectangle;html=1;whiteSpace=wrap;connectable=0;fillColor=none;top=0;left=0;bottom=0;right=0;align=left;spacingLeft=6;overflow=hidden;pointerEvents=1;" vertex="1" parent="z56JA3SXmcVmhiXHGwNw-31">
          <mxGeometry x="44" width="156" height="30" as="geometry" />
        </mxCell>
        <mxCell id="z56JA3SXmcVmhiXHGwNw-34" style="edgeStyle=orthogonalEdgeStyle;rounded=0;orthogonalLoop=1;jettySize=auto;html=1;exitX=1;exitY=0.5;exitDx=0;exitDy=0;" edge="1" parent="1" source="z56JA3SXmcVmhiXHGwNw-17" target="z56JA3SXmcVmhiXHGwNw-24">
          <mxGeometry relative="1" as="geometry" />
        </mxCell>
        <mxCell id="z56JA3SXmcVmhiXHGwNw-35" style="edgeStyle=orthogonalEdgeStyle;rounded=0;orthogonalLoop=1;jettySize=auto;html=1;exitX=1;exitY=0.5;exitDx=0;exitDy=0;" edge="1" parent="1" source="z56JA3SXmcVmhiXHGwNw-8" target="z56JA3SXmcVmhiXHGwNw-36">
          <mxGeometry relative="1" as="geometry" />
        </mxCell>
        <mxCell id="z56JA3SXmcVmhiXHGwNw-46" style="edgeStyle=orthogonalEdgeStyle;rounded=0;orthogonalLoop=1;jettySize=auto;html=1;exitX=0.75;exitY=0;exitDx=0;exitDy=0;entryX=0.145;entryY=0.967;entryDx=0;entryDy=0;entryPerimeter=0;" edge="1" parent="1" source="z56JA3SXmcVmhiXHGwNw-36" target="z56JA3SXmcVmhiXHGwNw-20">
          <mxGeometry relative="1" as="geometry" />
        </mxCell>
        <mxCell id="z56JA3SXmcVmhiXHGwNw-36" value="Tbl_Produk" style="shape=table;startSize=30;container=1;collapsible=0;childLayout=tableLayout;fixedRows=1;rowLines=0;fontStyle=1;align=center;pointerEvents=1;" vertex="1" parent="1">
          <mxGeometry x="240" y="470" width="200" height="120" as="geometry" />
        </mxCell>
        <mxCell id="z56JA3SXmcVmhiXHGwNw-37" value="" style="shape=partialRectangle;html=1;whiteSpace=wrap;collapsible=0;dropTarget=0;pointerEvents=1;fillColor=none;top=0;left=0;bottom=1;right=0;points=[[0,0.5],[1,0.5]];portConstraint=eastwest;" vertex="1" parent="z56JA3SXmcVmhiXHGwNw-36">
          <mxGeometry y="30" width="200" height="30" as="geometry" />
        </mxCell>
        <mxCell id="z56JA3SXmcVmhiXHGwNw-38" value="PK" style="shape=partialRectangle;html=1;whiteSpace=wrap;connectable=0;fillColor=none;top=0;left=0;bottom=0;right=0;overflow=hidden;pointerEvents=1;" vertex="1" parent="z56JA3SXmcVmhiXHGwNw-37">
          <mxGeometry width="44" height="30" as="geometry" />
        </mxCell>
        <mxCell id="z56JA3SXmcVmhiXHGwNw-39" value="id_nilai_kriteria:integer" style="shape=partialRectangle;html=1;whiteSpace=wrap;connectable=0;fillColor=none;top=0;left=0;bottom=0;right=0;align=left;spacingLeft=6;overflow=hidden;pointerEvents=1;" vertex="1" parent="z56JA3SXmcVmhiXHGwNw-37">
          <mxGeometry x="44" width="156" height="30" as="geometry" />
        </mxCell>
        <mxCell id="z56JA3SXmcVmhiXHGwNw-40" value="" style="shape=partialRectangle;html=1;whiteSpace=wrap;collapsible=0;dropTarget=0;pointerEvents=1;fillColor=none;top=0;left=0;bottom=0;right=0;points=[[0,0.5],[1,0.5]];portConstraint=eastwest;" vertex="1" parent="z56JA3SXmcVmhiXHGwNw-36">
          <mxGeometry y="60" width="200" height="30" as="geometry" />
        </mxCell>
        <mxCell id="z56JA3SXmcVmhiXHGwNw-41" value="" style="shape=partialRectangle;html=1;whiteSpace=wrap;connectable=0;fillColor=none;top=0;left=0;bottom=0;right=0;overflow=hidden;pointerEvents=1;" vertex="1" parent="z56JA3SXmcVmhiXHGwNw-40">
          <mxGeometry width="44" height="30" as="geometry" />
        </mxCell>
        <mxCell id="z56JA3SXmcVmhiXHGwNw-42" value="nama:varchar(122)" style="shape=partialRectangle;html=1;whiteSpace=wrap;connectable=0;fillColor=none;top=0;left=0;bottom=0;right=0;align=left;spacingLeft=6;overflow=hidden;pointerEvents=1;" vertex="1" parent="z56JA3SXmcVmhiXHGwNw-40">
          <mxGeometry x="44" width="156" height="30" as="geometry" />
        </mxCell>
        <mxCell id="z56JA3SXmcVmhiXHGwNw-43" value="" style="shape=partialRectangle;html=1;whiteSpace=wrap;collapsible=0;dropTarget=0;pointerEvents=1;fillColor=none;top=0;left=0;bottom=0;right=0;points=[[0,0.5],[1,0.5]];portConstraint=eastwest;" vertex="1" parent="z56JA3SXmcVmhiXHGwNw-36">
          <mxGeometry y="90" width="200" height="30" as="geometry" />
        </mxCell>
        <mxCell id="z56JA3SXmcVmhiXHGwNw-44" value="" style="shape=partialRectangle;html=1;whiteSpace=wrap;connectable=0;fillColor=none;top=0;left=0;bottom=0;right=0;overflow=hidden;pointerEvents=1;" vertex="1" parent="z56JA3SXmcVmhiXHGwNw-43">
          <mxGeometry width="44" height="30" as="geometry" />
        </mxCell>
        <mxCell id="z56JA3SXmcVmhiXHGwNw-45" value="" style="shape=partialRectangle;html=1;whiteSpace=wrap;connectable=0;fillColor=none;top=0;left=0;bottom=0;right=0;align=left;spacingLeft=6;overflow=hidden;pointerEvents=1;" vertex="1" parent="z56JA3SXmcVmhiXHGwNw-43">
          <mxGeometry x="44" width="156" height="30" as="geometry" />
        </mxCell>
        <mxCell id="z56JA3SXmcVmhiXHGwNw-47" value="Tbl_nilai_Produk" style="shape=table;startSize=30;container=1;collapsible=0;childLayout=tableLayout;fixedRows=1;rowLines=0;fontStyle=1;align=center;pointerEvents=1;" vertex="1" parent="1">
          <mxGeometry x="560" y="470" width="200" height="120" as="geometry" />
        </mxCell>
        <mxCell id="z56JA3SXmcVmhiXHGwNw-48" value="" style="shape=partialRectangle;html=1;whiteSpace=wrap;collapsible=0;dropTarget=0;pointerEvents=1;fillColor=none;top=0;left=0;bottom=1;right=0;points=[[0,0.5],[1,0.5]];portConstraint=eastwest;" vertex="1" parent="z56JA3SXmcVmhiXHGwNw-47">
          <mxGeometry y="30" width="200" height="30" as="geometry" />
        </mxCell>
        <mxCell id="z56JA3SXmcVmhiXHGwNw-49" value="PK" style="shape=partialRectangle;html=1;whiteSpace=wrap;connectable=0;fillColor=none;top=0;left=0;bottom=0;right=0;overflow=hidden;pointerEvents=1;" vertex="1" parent="z56JA3SXmcVmhiXHGwNw-48">
          <mxGeometry width="44" height="30" as="geometry" />
        </mxCell>
        <mxCell id="z56JA3SXmcVmhiXHGwNw-50" value="id_nilai_kriteria:integer" style="shape=partialRectangle;html=1;whiteSpace=wrap;connectable=0;fillColor=none;top=0;left=0;bottom=0;right=0;align=left;spacingLeft=6;overflow=hidden;pointerEvents=1;" vertex="1" parent="z56JA3SXmcVmhiXHGwNw-48">
          <mxGeometry x="44" width="156" height="30" as="geometry" />
        </mxCell>
        <mxCell id="z56JA3SXmcVmhiXHGwNw-51" value="" style="shape=partialRectangle;html=1;whiteSpace=wrap;collapsible=0;dropTarget=0;pointerEvents=1;fillColor=none;top=0;left=0;bottom=0;right=0;points=[[0,0.5],[1,0.5]];portConstraint=eastwest;" vertex="1" parent="z56JA3SXmcVmhiXHGwNw-47">
          <mxGeometry y="60" width="200" height="30" as="geometry" />
        </mxCell>
        <mxCell id="z56JA3SXmcVmhiXHGwNw-52" value="" style="shape=partialRectangle;html=1;whiteSpace=wrap;connectable=0;fillColor=none;top=0;left=0;bottom=0;right=0;overflow=hidden;pointerEvents=1;" vertex="1" parent="z56JA3SXmcVmhiXHGwNw-51">
          <mxGeometry width="44" height="30" as="geometry" />
        </mxCell>
        <mxCell id="z56JA3SXmcVmhiXHGwNw-53" value="nama:varchar(122)" style="shape=partialRectangle;html=1;whiteSpace=wrap;connectable=0;fillColor=none;top=0;left=0;bottom=0;right=0;align=left;spacingLeft=6;overflow=hidden;pointerEvents=1;" vertex="1" parent="z56JA3SXmcVmhiXHGwNw-51">
          <mxGeometry x="44" width="156" height="30" as="geometry" />
        </mxCell>
        <mxCell id="z56JA3SXmcVmhiXHGwNw-54" value="" style="shape=partialRectangle;html=1;whiteSpace=wrap;collapsible=0;dropTarget=0;pointerEvents=1;fillColor=none;top=0;left=0;bottom=0;right=0;points=[[0,0.5],[1,0.5]];portConstraint=eastwest;" vertex="1" parent="z56JA3SXmcVmhiXHGwNw-47">
          <mxGeometry y="90" width="200" height="30" as="geometry" />
        </mxCell>
        <mxCell id="z56JA3SXmcVmhiXHGwNw-55" value="" style="shape=partialRectangle;html=1;whiteSpace=wrap;connectable=0;fillColor=none;top=0;left=0;bottom=0;right=0;overflow=hidden;pointerEvents=1;" vertex="1" parent="z56JA3SXmcVmhiXHGwNw-54">
          <mxGeometry width="44" height="30" as="geometry" />
        </mxCell>
        <mxCell id="z56JA3SXmcVmhiXHGwNw-56" value="" style="shape=partialRectangle;html=1;whiteSpace=wrap;connectable=0;fillColor=none;top=0;left=0;bottom=0;right=0;align=left;spacingLeft=6;overflow=hidden;pointerEvents=1;" vertex="1" parent="z56JA3SXmcVmhiXHGwNw-54">
          <mxGeometry x="44" width="156" height="30" as="geometry" />
        </mxCell>
        <mxCell id="z56JA3SXmcVmhiXHGwNw-57" style="edgeStyle=orthogonalEdgeStyle;rounded=0;orthogonalLoop=1;jettySize=auto;html=1;exitX=1;exitY=0.5;exitDx=0;exitDy=0;entryX=0;entryY=0.5;entryDx=0;entryDy=0;" edge="1" parent="1" source="z56JA3SXmcVmhiXHGwNw-40" target="z56JA3SXmcVmhiXHGwNw-47">
          <mxGeometry relative="1" as="geometry" />
        </mxCell>
      </root>
    </mxGraphModel>
  </diagram>
</mxfile>
